<?xml version="1.0" encoding="utf-8" standalone="no"?>
<!-- Generator: Adobe Illustrator 26.0.3, SVG Export Plug-In . SVG Version: 6.00 Build 0)  --><svg xmlns="http://www.w3.org/2000/svg" xmlns:xlink="http://www.w3.org/1999/xlink" height="82" id="Layer_1" style="enable-background:new 0 0 192.6 82.5;" version="1.1" viewBox="0 0 192.6 82.5" width="192" x="0px" xml:space="preserve" y="0px">
<style type="text/css">
	.st0{fill:#54CCED;}
	.st1{fill:#1D4482;}
	.st2{fill:#0F77B7;}
	.st3{fill:#442258;}
	.st4{fill:#F05A25;}
	.st5{display:none;fill:#54CCED;}
</style>
<g>
	<g>
		<rect class="st0" height="8.8" transform="matrix(0.7071 -0.7071 0.7071 0.7071 3.4915 26.5568)" width="8.8" x="29.4" y="4.6"/>
		<polygon class="st1" points="0,52.3 33.8,18.5 67.6,52.3   "/>
		<polygon class="st2" points="21.3,43.5 33.8,31 46.3,43.5   "/>
	</g>
	<g>
		<path class="st2" d="M76.4,52.3V18.5h7v27.7H102v6.2H76.4z"/>
		<path class="st2" d="M106.8,18.5h6.7l16.8,21.9V18.5h6.6v33.9h-6.2l-17.3-22.6v22.6h-6.6V18.5z"/>
		<path class="st2" d="M143.1,52.3V18.5h7v33.9H143.1z"/>
		<path class="st2" d="M188.3,35.4c0,2.4-0.4,4.7-1.3,6.8c-0.8,2.1-2,3.9-3.4,5.4c-1.5,1.5-3.2,2.7-5.3,3.5c-2,0.9-4.2,1.3-6.6,1.3    c-2.5,0-4.8-0.4-6.9-1.3c-2.1-0.9-4-2.1-5.5-3.6c-1.6-1.5-2.8-3.3-3.7-5.4c-0.9-2.1-1.4-4.3-1.4-6.7c0-2.4,0.4-4.6,1.3-6.7    c0.9-2.1,2.1-3.9,3.7-5.4c1.6-1.5,3.4-2.7,5.5-3.6c2.1-0.9,4.4-1.3,6.8-1.3c2.7,0,5.3,0.6,7.7,1.7c2.4,1.1,4.4,2.6,6,4.5l-4.8,4.4    c-1.2-1.4-2.5-2.4-4-3.2c-1.5-0.7-3.2-1.1-4.9-1.1c-1.5,0-2.9,0.3-4.1,0.8c-1.3,0.6-2.4,1.3-3.3,2.3c-0.9,1-1.7,2.1-2.2,3.4    c-0.5,1.3-0.8,2.7-0.8,4.3c0,1.5,0.3,3,0.8,4.3c0.5,1.3,1.3,2.5,2.2,3.4c0.9,1,2.1,1.7,3.4,2.3c1.3,0.6,2.7,0.8,4.2,0.8    c2.3,0,4.3-0.6,6-1.9c1.7-1.3,2.7-2.9,3.1-5h-9.8v-5.9h17.1V35.4z"/>
	</g>
	<g>
		<path class="st3" d="M173.4,80.6c-4.1,0-3.1-10.4,0.1-10.3c1.4,0,2.2,1.8,2.3,4C175.9,78,175.3,80.6,173.4,80.6 M182.3,78.7    c-0.2-0.1-0.5,0.1-0.5,0.2c-0.3,1.1-0.7,1.8-1.6,1.7c-1.7-0.2-1.6-3.8-1.6-5.4c0-6,0.2-13.2,0.2-13.5c0-0.2-0.3-0.4-1.3-0.7    c-0.6-0.1-0.9-0.2-1.1-0.2c-0.3,0-0.7,0.3-0.7,0.6v7.9c-0.8-0.8-1.8-1.4-3-1.4c-6.1-0.1-7.1,13.5-0.9,14.4    c2.1,0.3,3.6-0.8,4.6-2.5c0.7,1.9,1.9,2.4,2.6,2.6c0.6,0.1,2.4-0.1,3.3-2C182.7,79.8,182.8,78.9,182.3,78.7"/>
		<path class="st3" d="M151,80.6c-4.1-0.1-3.1-10.4,0.1-10.3c1.6,0,2.3,2.3,2.3,5C153.5,77.9,152.9,80.6,151,80.6 M165.9,68    c-2.5,0.4-3.5,3.8-3.5,4.3v-3c0-0.2-0.3-0.4-1.3-0.7c-0.6-0.1-0.9-0.2-1.1-0.2c-0.3,0-0.7,0.3-0.7,0.6v6.7v0.4c0,0.1,0,0.2,0,0.4    c-0.2,2-0.4,4.1-1.7,4.1c-1.8,0-1.2-3.7-1.2-5.3c0.1-4.9,0.2-6,0.2-6c0-0.2-0.3-0.4-1.3-0.7c-0.6-0.1-0.9-0.2-1.1-0.2    c-0.3,0-0.7,0.3-0.7,0.6v0.5c-0.8-0.9-1.8-1.5-3.1-1.5c-4.2-0.1-6,6.4-4.6,10.7c-0.2,1.1-0.6,2-1.7,1.9c-1.7-0.2-1.6-3.8-1.6-5.4    c0-6,0.2-13.5,0.2-13.5c0-0.2-0.3-0.4-1.3-0.7c-0.6-0.1-0.9-0.2-1.1-0.2c-0.3,0-0.7,0.3-0.7,0.6v13c0,1.3,0,2.4,0.2,3.3    c-0.3,1.6-0.8,2.9-2,2.8c-1.7-0.2-1.6-3.8-1.6-5.4c0-6,0.2-13.5,0.2-13.5c0-0.2-0.3-0.4-1.3-0.7c-0.6-0.1-0.9-0.2-1.1-0.2    c-0.3,0-0.7,0.3-0.7,0.6v13.2c-0.2,6.3,2,7.5,3.3,7.7c0.6,0.1,2.9-0.1,3.6-2.7c0.7,2,1.9,2.6,2.7,2.7c0.5,0,2.6-0.1,3.5-2.3    c0.7,1.2,1.7,2,3.1,2.2c2,0.3,3.5-0.7,4.5-2.3c0.5,1.7,1.3,2.2,2.2,2.3c0.7,0.1,2.2,0,3.1-1.5v0.7c0,0.2,0.1,0.4,1.1,0.7    c0.6,0.1,1.1,0.2,1.3,0.2c0.3,0,0.7-0.3,0.7-0.6v-3.6c0-1.5,1-7.2,3.4-7.4c0.2,0,0.5,0,0.7,0.1C168.4,71.6,168.4,67.6,165.9,68"/>
		<path class="st3" d="M127.6,80.6c-4.1-0.1-3-10,0.1-10.3C131.1,69.9,131.6,80.7,127.6,80.6 M127,68c-6.1-0.1-7.1,13.4-0.9,14.4    C133.8,83.6,134.3,68.1,127,68"/>
		<path class="st3" d="M120.6,61.7v20.2c0,0.4-0.3,0.6-0.7,0.6c-0.2,0-0.7-0.1-1.3-0.2c-1-0.2-1.1-0.4-1.1-0.7v-9.2    c-1.4,0.1-3.2,0.2-5.4,0.8v8.7c0,0.4-0.3,0.6-0.7,0.6c-0.2,0-0.7-0.1-1.3-0.2c-1-0.2-1.1-0.4-1.1-0.7l0-3.6c0,0,0-1.6,0-3.9    c0,0-0.2,0-0.3,0.1c-0.6,0.2-1.6-0.8-1.8-1.7c-0.2-0.5-0.1-0.9,0.4-1.1c0.5-0.2,1.5-0.4,1.7-0.4v-9.4c0-0.4,0.3-0.6,0.7-0.6    c0.2,0,0.5,0.1,1.1,0.2c1,0.3,1.3,0.4,1.3,0.7c0,0.1,0,8.6,0,8.6c1.9-0.3,3.6-0.3,5.4-0.3v-8.6c0-0.4,0.3-0.6,0.7-0.6    c0.2,0,0.5,0.1,1.1,0.2C120.3,61.3,120.6,61.5,120.6,61.7"/>
		<path class="st4" d="M188.4,80.5c-0.2,1.3-1.4,2.2-2.5,1.9c-1.2-0.2-1.9-1.4-1.7-2.7c0.2-1.3,1.4-2.3,2.5-2.1    C187.9,77.9,188.6,79.2,188.4,80.5"/>
	</g>
</g>
<rect class="st5" height="51.6" width="51.6" x="794.6" y="547.1"/>
<rect class="st5" height="51.6" width="51.6" x="1159.5" y="598.5"/>
</svg>
